<svg version="1.2" baseProfile="tiny-ps" xmlns="http://www.w3.org/2000/svg" viewBox="0 0 700 600" width="4000" height="3429">
	<title>1</title>
	<style>
		tspan { white-space:pre }
		.s0 { fill: #00d4ff } 
	</style>
	<path id="Path 0" fill-rule="evenodd" class="s0" d="m2.65 8l229.92 0c149.77 0 233.93 0.36 241.42 1.03c6.32 0.57 16.68 1.91 23 2.99c6.32 1.08 16.45 3.26 22.5 4.86c6.05 1.6 15.5 4.57 21 6.62c5.5 2.04 14.05 5.66 19 8.03c4.95 2.38 12.15 6.23 16 8.56c3.85 2.33 10.38 6.71 14.5 9.73c4.13 3.02 10.17 7.78 13.43 10.58c3.26 2.8 9.73 9.37 14.38 14.59c4.65 5.22 11.72 14.45 15.7 20.5c3.99 6.05 9.49 15.72 12.23 21.5c2.74 5.78 6.38 14.78 8.08 20c1.7 5.22 3.99 13.1 5.08 17.5c1.09 4.4 2.73 13.4 3.65 20c1.3 9.4 1.55 16.98 1.18 35c-0.37 17.76-0.96 25.51-2.6 34c-1.17 6.05-3.41 15.27-5 20.5c-1.58 5.23-4.12 12.65-5.65 16.5c-1.52 3.85-4.57 10.6-6.76 15c-2.19 4.4-6.03 11.15-8.52 15c-2.49 3.85-6.78 9.93-9.53 13.5c-2.76 3.57-7.97 9.59-11.59 13.36c-3.62 3.77-10.41 10.08-15.08 14.02c-4.67 3.93-12.33 9.66-17 12.73c-4.67 3.06-12.33 7.64-17 10.18c-4.67 2.53-14.13 6.82-21 9.54c-6.88 2.71-15.09 5.66-18.25 6.56c-5.13 1.45-5.62 1.81-4.56 3.37c0.66 0.96 2.83 3.55 4.84 5.75c2 2.2 4.73 5.41 6.06 7.13c1.33 1.72 7.16 8.47 12.96 15c5.8 6.53 22.85 25.82 37.88 42.87c15.03 17.05 30.31 34.37 33.95 38.49c3.64 4.12 10.23 11.54 14.65 16.5c4.41 4.96 13.14 14.86 19.4 22.01c6.26 7.15 14.12 16.15 17.47 19.99c3.36 3.84 8.15 9.24 10.65 12c2.5 2.76 7.23 8.07 16.45 18.6l-179-0.1l-30.5-34.66c-16.77-19.06-39.45-44.82-50.38-57.25c-10.94-12.42-26.51-30.24-34.61-39.59c-8.1-9.35-22.1-25.37-31.12-35.59c-9.01-10.23-29.2-33.18-44.87-51c-15.66-17.82-29.5-33.53-33.03-37.41l0.01 255.5h-148l-0.02-423.5l-6.64-7.5c-3.65-4.13-9.44-10.65-12.85-14.5c-3.41-3.85-19.65-22.3-36.07-41c-16.42-18.7-37.93-43.22-47.78-54.5c-9.86-11.28-19.32-22.08-21.03-24.02c-1.71-1.94-6.22-7-10.03-11.25l-6.92-7.73zm313.49 153.25c12.73 14.44 24.77 28.05 26.76 30.25c1.99 2.2 11.48 12.97 21.1 23.94c9.62 10.97 21.28 24.24 25.92 29.5c4.63 5.26 8.91 10.03 9.5 10.6c0.59 0.58 3.55 2.91 6.58 5.19c3.02 2.28 8.43 5.48 12 7.1c3.57 1.63 9.2 3.67 12.5 4.54c3.6 0.95 10.2 1.59 16.5 1.6c7.61 0.02 12.57-0.55 18-2.06c4.13-1.14 10.43-3.61 14-5.48c3.57-1.87 8.78-5.33 11.56-7.68c2.79-2.35 7.06-6.65 9.5-9.56c2.44-2.91 5.9-8.08 7.69-11.5c1.79-3.42 4.25-9.36 5.46-13.21c1.77-5.6 2.21-9.4 2.21-19c0-9.6-0.44-13.4-2.21-19c-1.21-3.85-3.67-9.8-5.46-13.21c-1.79-3.42-5.25-8.59-7.69-11.5c-2.44-2.91-6.71-7.21-9.5-9.56c-2.79-2.35-7.99-5.8-11.56-7.67c-3.57-1.87-10.55-4.55-15.5-5.97c-6.1-1.75-13.51-2.9-23-3.58c-7.7-0.55-43.74-1-80.08-1.01c-36.35 0-66.38 0.22-66.75 0.49c-0.37 0.28 9.75 12.31 22.48 26.75zm132.35 18.12c3.05 0.21 7.1 1.48 10.4 3.24c2.97 1.59 6.4 4.24 7.63 5.89c1.23 1.65 2.96 4.46 3.85 6.25c0.89 1.79 1.9 5.16 2.24 7.5c0.39 2.69 0.03 6.36-1 10c-1.05 3.71-2.95 7.22-5.37 9.91c-2.06 2.29-6 5.21-8.75 6.49c-3.33 1.56-6.83 2.33-10.5 2.33c-3.67 0-7.17-0.78-10.5-2.33c-2.75-1.28-6.69-4.2-8.75-6.49c-2.42-2.69-4.32-6.19-5.37-9.91c-1.03-3.64-1.39-7.31-1-10c0.34-2.34 1.68-6.39 2.98-9c1.3-2.61 4.33-6.31 6.75-8.22c2.42-1.91 6.19-4.04 8.39-4.74c2.2-0.7 6.25-1.11 9-0.92z" />
</svg>