<svg version="1.2" baseProfile="tiny-ps" xmlns="http://www.w3.org/2000/svg" viewBox="0 0 2500 600" width="4000" height="960">
	<title>2</title>
	<style>
		tspan { white-space:pre }
		.s0 { fill: #00d4ff } 
	</style>
	<path id="Path 0" fill-rule="evenodd" class="s0" d="m0.5 7.95l232 0.05c193.97 0.04 234.29 0.28 246 1.48c7.7 0.79 17.38 2.14 21.5 3.01c4.13 0.87 12.9 2.99 19.5 4.71c6.6 1.72 16.5 4.89 22 7.05c5.5 2.16 14.73 6.34 20.5 9.29c5.77 2.96 14.33 7.94 19 11.07c4.67 3.13 11.88 8.52 16 11.97c4.13 3.45 10.68 9.57 14.58 13.6c3.89 4.03 8.9 9.58 11.12 12.33c2.22 2.75 6.52 8.83 9.56 13.5c3.03 4.67 7.81 13.11 10.63 18.75c2.82 5.64 7.14 16.32 9.62 23.75c2.48 7.43 5.42 18.79 6.54 25.25c1.12 6.46 2.51 17.82 3.09 25.25c0.58 7.43 0.77 18.45 0.43 24.5c-0.34 6.05-1.32 16.18-2.17 22.5c-0.85 6.32-2.4 14.88-3.44 19c-1.04 4.13-3.4 12-5.26 17.5c-1.86 5.5-5.57 14.5-8.24 20c-2.67 5.5-7.33 13.82-10.34 18.5c-3.01 4.68-8.21 11.86-11.54 15.97c-3.33 4.11-9 10.41-12.58 14c-3.58 3.59-9.66 9.06-13.5 12.15c-3.84 3.09-10.81 8.18-15.48 11.31c-4.67 3.13-13.67 8.28-20 11.44c-6.33 3.16-16.23 7.56-22 9.78c-5.77 2.22-12.64 4.56-20 6.35l7.75 9.25c4.26 5.09 13.55 15.77 20.65 23.75c7.09 7.98 14.07 15.85 15.51 17.5c1.44 1.65 12.93 14.7 25.55 29c12.61 14.3 25.72 29.15 29.12 33c3.4 3.85 11.75 13.3 18.56 21c6.8 7.7 19.12 21.65 27.37 31c8.25 9.35 16.12 18.33 17.5 19.96c1.38 1.63 4.32 5 6.53 7.5c2.22 2.5 4.69 5.35 5.5 6.34c1.41 1.72-2.07 1.79-178.03 1.71l-21.19-24.25c-11.66-13.34-26.2-29.88-32.33-36.75c-6.12-6.88-14.47-16.37-18.56-21.09c-4.08-4.72-13.71-15.75-21.39-24.5c-7.68-8.75-15.63-17.71-17.67-19.91c-2.04-2.2-4.73-5.35-5.99-7c-1.26-1.65-6.13-7.3-10.83-12.55c-4.7-5.25-11.25-12.67-14.55-16.49c-3.3-3.82-9.61-10.99-14.02-15.95c-4.41-4.96-12.72-14.41-18.47-21.01c-5.74-6.6-10.7-12.23-11.01-12.5c-0.31-0.27-5.26-5.9-11-12.5c-5.74-6.6-14.23-16.27-27.33-31l1.32 255.5h-149v-423l-11.15-12.75c-6.13-7.01-13.22-15.02-15.75-17.8c-2.53-2.78-12.03-13.54-21.1-23.92c-9.08-10.38-22.07-25.2-28.87-32.95c-6.8-7.75-16.95-19.26-22.55-25.58c-5.6-6.33-13.27-15.1-17.05-19.5c-3.78-4.4-10.03-11.6-13.9-16c-3.86-4.4-7.95-9.02-9.08-10.28l-2.05-2.28zm299.61 137.05c3.7 4.13 14.3 16.06 23.56 26.52c9.26 10.46 19.31 21.9 22.34 25.41c3.02 3.51 9.32 10.72 14 16.01c4.68 5.29 15.08 17.03 23.12 26.09c8.04 9.06 17.04 18.35 20 20.64c2.96 2.29 7.63 5.29 10.38 6.67c2.75 1.37 7.93 3.47 11.5 4.67c3.76 1.26 10.3 2.41 15.5 2.72c5.2 0.31 11.96 0.03 16-0.67c3.85-0.67 9.93-2.37 13.5-3.79c3.57-1.42 8.98-4.14 12-6.06c3.02-1.91 8.76-6.79 12.75-10.85c5.43-5.52 8.24-9.44 11.21-15.62c2.18-4.54 4.73-11.18 5.68-14.75c1.15-4.35 1.7-10.14 1.67-17.5c-0.04-9.23-0.48-12.28-2.76-19c-1.49-4.4-4.13-10.68-5.88-13.95c-1.75-3.27-6.32-9.18-10.17-13.12c-3.85-3.95-9.7-8.88-13-10.98c-3.3-2.09-9.49-5.07-13.75-6.63c-4.26-1.55-11.69-3.51-16.5-4.34c-7.28-1.26-21.39-1.51-84.1-1.5c-60.04 0.01-75.19 0.26-74.56 1.26c0.44 0.69 3.82 4.63 7.52 8.75zm1192.39-95.99c5.2-0.04 10.27 0.63 14.5 1.9c3.77 1.13 9.02 3.79 12.5 6.32c3.3 2.4 7.48 6.14 9.29 8.31c1.81 2.17 4.63 6.65 6.26 9.95c1.79 3.61 3.27 8.59 3.72 12.5c0.41 3.58 0.47 9.42 0.13 13c-0.42 4.41-1.71 8.73-4.01 13.43c-2.03 4.15-5.61 9.17-8.92 12.5c-3.04 3.06-7.99 6.88-11 8.49c-3.01 1.61-7.73 3.52-10.48 4.24c-2.75 0.72-7.7 1.32-11 1.33c-3.3 0.01-8.7-0.68-12-1.53c-3.3-0.85-8.41-2.99-11.35-4.76c-2.94-1.76-7.68-5.68-10.52-8.71c-2.84-3.03-6.34-7.97-7.78-11c-1.44-3.03-3.11-7.86-3.73-10.75c-0.61-2.89-1.12-7.39-1.12-10c0-2.61 0.7-7.45 1.55-10.75c0.86-3.3 2.74-8.03 4.19-10.5c1.45-2.47 4.91-6.91 7.7-9.86c2.79-2.95 7.09-6.54 9.57-7.99c2.47-1.45 6.75-3.41 9.5-4.36c3.03-1.05 8.15-1.75 13-1.78zm573 0c5.2-0.04 10.27 0.63 14.5 1.9c3.77 1.13 9.02 3.79 12.5 6.32c3.3 2.4 7.48 6.14 9.29 8.31c1.81 2.17 4.63 6.65 6.26 9.95c1.79 3.61 3.27 8.59 3.72 12.5c0.41 3.58 0.47 9.42 0.13 13c-0.42 4.41-1.71 8.73-4.01 13.43c-2.03 4.15-5.61 9.17-8.92 12.5c-3.04 3.06-7.99 6.88-11 8.49c-3.01 1.61-7.73 3.52-10.48 4.24c-2.75 0.72-7.7 1.32-11 1.33c-3.3 0.01-8.7-0.68-12-1.53c-3.3-0.85-8.41-2.99-11.35-4.76c-2.94-1.76-7.68-5.68-10.52-8.71c-2.84-3.03-6.34-7.97-7.78-11c-1.44-3.03-3.11-7.86-3.73-10.75c-0.61-2.89-1.12-7.39-1.12-10c0-2.61 0.7-7.45 1.55-10.75c0.86-3.3 2.74-8.03 4.19-10.5c1.45-2.47 4.91-6.91 7.7-9.86c2.79-2.95 7.09-6.54 9.57-7.99c2.47-1.45 6.75-3.41 9.5-4.36c3.03-1.05 8.15-1.75 13-1.78zm-983 38.29c60.64 0.31 103.26 0.93 110 1.6c6.05 0.6 15.95 1.8 22 2.66c6.05 0.86 15.95 2.65 22 3.98c6.05 1.33 15.28 3.82 20.5 5.53c5.22 1.71 14 5.23 19.5 7.82c5.5 2.59 12.92 6.68 16.5 9.09c3.58 2.4 9.8 7.55 13.84 11.44c4.04 3.89 9.48 10 12.09 13.57c2.61 3.57 6.12 8.97 7.8 12c1.68 3.03 4.64 9.55 6.58 14.5c1.94 4.95 4.67 14.18 6.07 20.5c1.39 6.32 3.01 16.22 3.59 22c0.58 5.78 1.05 15.9 1.05 22.5c0 6.6-0.47 16.72-1.05 22.5c-0.58 5.77-2.2 15.68-3.6 22c-1.4 6.32-4.11 15.55-6.01 20.5c-1.9 4.95-5.07 11.93-7.04 15.5c-1.97 3.57-6.07 9.88-9.11 14c-3.04 4.13-8.72 10.59-12.62 14.36c-3.89 3.77-11.36 9.71-16.58 13.19c-5.22 3.49-13.1 8.01-17.5 10.05c-4.4 2.04-11.38 4.96-15.5 6.49c-4.13 1.53-7.43 3.15-7.35 3.6c0.08 0.45 26.29 37.16 58.25 81.57c31.96 44.41 58.1 80.98 58.1 81.25c0 0.27-21.88 0.39-97.24 0l-107.3-151l-100.46-0.5v152h-77l-0.17-225.83c-0.1-135.87 0.2-226.14 0.75-226.6c0.5-0.42 45.47-0.54 99.92-0.26zm-23.5 230.7c125.53-0.67 130.17-0.82 140.5-2.79c6.05-1.15 14.15-3.08 18-4.27c3.85-1.19 10.15-3.76 14-5.69c4.58-2.31 9.25-5.81 13.53-10.13c3.59-3.63 7.95-9.31 9.7-12.61c1.74-3.3 4.04-8.48 5.1-11.5c1.06-3.02 2.72-10.23 3.69-16c1.37-8.17 1.64-13.83 1.22-25.5c-0.38-10.59-1.16-17.35-2.64-23c-1.16-4.4-3.53-10.93-5.27-14.5c-1.91-3.93-5.58-8.93-9.24-12.65c-4.23-4.28-8.35-7.23-13.58-9.72c-4.13-1.97-11.78-4.7-17-6.07c-5.22-1.37-14.67-3.24-21-4.15c-9.36-1.34-23.14-1.74-74.15-2.13l-62.65-0.48l-0.2 161.2zm-614-138.98c3.66 0 7.17 0.78 10.5 2.33c2.75 1.28 6.54 4.09 8.43 6.24c1.88 2.15 4.3 5.94 5.38 8.41c1.46 3.36 1.84 6.02 1.52 10.5c-0.24 3.3-1.18 7.57-2.09 9.5c-0.91 1.93-3.25 5.19-5.19 7.25c-1.95 2.06-5.45 4.73-7.79 5.93c-3.08 1.58-6.04 2.18-10.75 2.18c-4.6 0-7.67-0.6-10.5-2.06c-2.2-1.13-5.35-3.18-7-4.55c-1.65-1.37-4.11-4.69-5.46-7.37c-1.5-2.98-2.62-7.21-2.88-10.88c-0.31-4.46 0.08-7.16 1.53-10.5c1.07-2.47 3.49-6.26 5.38-8.41c1.88-2.15 5.68-4.96 8.43-6.24c3.33-1.55 6.84-2.33 10.5-2.33zm1912.5 11.15c3.3-0.1 11.85 0.29 19 0.86c7.15 0.57 17.5 1.96 23 3.09c5.5 1.12 13.6 3.17 18 4.56c4.4 1.38 12.5 4.68 18 7.32c5.5 2.64 14 7.66 18.88 11.15c4.89 3.49 11.61 9.28 14.94 12.85c3.33 3.57 7.95 9.43 10.28 13c2.32 3.57 5.63 9.65 7.36 13.5c1.73 3.85 4.04 9.93 5.14 13.5c1.1 3.57 2.95 11.45 4.1 17.5c2.05 10.73 2.11 13.91 2.79 252.5h-67l-0.05-44.5l-9.72 9.55c-5.42 5.32-14.16 12.49-19.72 16.19c-5.5 3.66-13.38 8.21-17.5 10.12c-4.13 1.91-11.1 4.68-15.5 6.15c-4.4 1.47-12.05 3.57-17 4.67c-6.59 1.46-14.35 2.13-29 2.53c-15.99 0.43-22.2 0.19-31-1.18c-6.05-0.94-15.28-3.07-20.5-4.73c-5.22-1.66-13.55-5.02-18.5-7.47c-4.95-2.45-12.54-7.02-16.86-10.14c-4.32-3.13-11.09-9.06-15.03-13.18c-3.94-4.13-8.7-9.75-10.59-12.5c-1.88-2.75-5.33-9.05-7.66-14c-2.33-4.95-5.16-12.6-6.3-17c-1.14-4.4-2.57-12.73-3.18-18.5c-0.62-5.87-0.81-14.47-0.43-19.5c0.37-4.95 1.36-12.38 2.19-16.5c0.83-4.13 2.87-10.88 4.52-15c1.66-4.13 4.99-10.54 7.42-14.25c2.43-3.71 7.22-9.51 10.66-12.89c3.44-3.38 8.72-7.8 11.75-9.82c3.03-2.02 7.97-5.06 11-6.74c3.03-1.69 9.55-4.66 14.5-6.61c4.95-1.95 13.5-4.67 19-6.05c5.5-1.38 14.72-3.28 20.5-4.22c8.86-1.45 19.96-1.79 131.5-2.56l-0.64-14.67c-0.36-8.35-1.34-17.26-2.27-20.67c-0.89-3.3-3.15-9.15-5-13c-2.13-4.41-5.56-9.22-9.29-13c-3.42-3.47-8.84-7.55-12.86-9.68c-3.82-2.02-10.32-4.6-14.44-5.74c-4.13-1.13-12-2.58-17.5-3.21c-5.5-0.63-14.72-0.89-20.5-0.57c-5.78 0.32-15.22 1.53-21 2.7c-5.78 1.16-14.55 3.45-19.5 5.09c-4.95 1.64-14.85 5.81-22 9.27c-7.15 3.46-16.82 8.66-21.5 11.55c-4.68 2.9-8.82 5.34-9.22 5.42c-0.39 0.09-7.96-9.97-32.91-44.84l2.81-2.34c1.55-1.29 8.21-5.95 14.81-10.37c6.6-4.42 18.3-11.11 26-14.87c7.7-3.76 19.4-8.63 26-10.81c6.6-2.18 17.18-5.1 23.5-6.48c6.32-1.38 16-2.99 21.5-3.58c5.5-0.58 12.03-1.21 14.5-1.38c2.47-0.18 7.2-0.4 10.5-0.5zm-51 196.88c-4.4 1.09-11.15 3.49-15 5.32c-3.85 1.83-9.41 5.54-12.35 8.23c-3.34 3.06-6.43 7.15-8.23 10.9c-1.58 3.3-3.4 9.15-4.03 13c-0.88 5.32-0.87 8.92 0.03 15c0.67 4.56 2.41 10.58 4.03 14c1.84 3.88 4.94 7.95 8.74 11.5c3.24 3.02 8.57 6.94 11.85 8.69c3.28 1.76 10.46 4.45 15.96 6c9.51 2.67 11.01 2.8 30.5 2.76c17.98-0.04 21.48-0.32 28.5-2.26c4.4-1.22 11.6-3.92 16-6.02c4.4-2.09 10.7-5.63 14-7.85c3.3-2.23 8.81-7.03 12.25-10.68c3.58-3.81 7.74-9.62 9.75-13.64c1.93-3.85 4.17-9.81 4.99-13.25c1.05-4.41 1.49-12.05 1.5-26l0.01-19.75c-72.46 0.21-97.32 0.67-102 1.16c-4.68 0.49-12.1 1.79-16.5 2.89zm-778-191.55l0.5 344.5h-73l-0.17-171.83c-0.09-94.51 0.21-172.14 0.68-172.51c0.47-0.37 16.85-0.56 71.99-0.15zm145.91 0l52.05 129.24c28.63 71.08 52.27 129.24 52.55 129.25c0.28 0.01 23.94-58.15 104.66-258.49l36.92-0.24c20.31-0.13 37.24 0.09 37.63 0.5c0.39 0.41-30.33 77.92-68.26 172.24c-37.93 94.32-68.97 171.61-68.96 171.75c0.01 0.14-18.78 0.26-83.49 0.3l-69.17-171.78c-38.04-94.48-68.95-172.12-68.69-172.54c0.26-0.42 17.19-0.64 74.76-0.24zm427.09 0l0.5 344.5h-73l-0.17-171.83c-0.09-94.51 0.21-172.14 0.68-172.51c0.47-0.37 16.85-0.56 71.99-0.15z" />
</svg>